<?xml version="1.0" encoding="UTF-8"?>
<svg id="Layer_1" xmlns="http://www.w3.org/2000/svg" version="1.1" viewBox="0 0 273.4 35.5">
  <!-- Generator: Adobe Illustrator 29.5.1, SVG Export Plug-In . SVG Version: 2.1.0 Build 141)  -->
  <defs>
    <style>
      .st0 {
        fill: #fff;
      }
    </style>
  </defs>
  <g id="Layer_2">
    <g id="Layer_1-2">
      <path class="st0" d="M191.9,35.4h63.9c9.8,0,17.7-7.9,17.7-17.7h0C273.4,7.9,265.5,0,255.8,0c0,0,0,0,0,0h-63.9c-9.8,0-17.7,7.9-17.7,17.7,0,0,0,0,0,0h0c0,9.8,7.9,17.7,17.7,17.7h0ZM10.1,35.4h7.8V6.9h10.1V0H0v6.9h10.1v28.5ZM38.2,35.4h7.8V8.2h0l9,27.2h6l9.3-27.2h0v27.2h7.8V0h-11.8l-8.2,23.1h0L50,0h-11.8v35.4ZM89.1.1h11.7c2.7,0,5.4.3,8.1,1,2.4.6,4.7,1.6,6.7,3.1,1.9,1.5,3.5,3.3,4.5,5.5,1.2,2.6,1.8,5.4,1.7,8.2,0,2.6-.5,5.2-1.6,7.6-1,2.1-2.5,4-4.4,5.5-1.9,1.5-4,2.7-6.3,3.4-2.4.8-5,1.2-7.6,1.2h-12.7V.1ZM96.9,28.3h4c1.7,0,3.4-.2,5-.5,1.5-.3,2.8-.9,4.1-1.8,1.2-.9,2.1-2,2.7-3.4.7-1.6,1-3.3,1-5.1,0-1.6-.3-3.1-1-4.5-.6-1.2-1.5-2.3-2.6-3.2-1.2-.9-2.4-1.5-3.8-1.9-1.5-.4-3.1-.6-4.7-.6h-4.6v21ZM133.1.1h13.2c1.5,0,3.1.1,4.6.3,1.5.2,2.9.6,4.2,1.3,1.2.6,2.3,1.6,3,2.7.8,1.4,1.2,3,1.1,4.7,0,1.8-.5,3.6-1.7,5-1.2,1.4-2.7,2.3-4.4,2.8h0c1.1.2,2.2.6,3.2,1.1.9.5,1.8,1.1,2.4,1.9.7.8,1.2,1.7,1.6,2.6.4,1,.6,2.1.6,3.2,0,1.6-.4,3.3-1.2,4.7-.8,1.2-1.8,2.3-3.1,3-1.3.8-2.8,1.3-4.3,1.6-1.6.3-3.1.5-4.7.5h-14.5V.1ZM140.9,14.3h5.6c.6,0,1.2,0,1.8-.2.6-.1,1.1-.3,1.6-.6.5-.3.9-.7,1.1-1.2.3-.6.4-1.2.4-1.8,0-.6-.1-1.3-.4-1.8-.3-.5-.7-.9-1.2-1.1-.6-.3-1.2-.5-1.8-.6-.6-.1-1.2-.2-1.9-.2h-5.3v7.5ZM140.9,28.9h7c.6,0,1.2,0,1.8-.2.6-.1,1.2-.4,1.7-.7.5-.3.9-.8,1.2-1.3.3-.6.5-1.3.5-2,0-.7-.2-1.4-.6-2-.4-.5-1-.9-1.6-1.2-.6-.3-1.3-.5-2-.5-.7,0-1.4-.1-2.1-.1h-5.9v8Z"/>
    </g>
  </g>
</svg>